<svg xmlns="http://www.w3.org/2000/svg" viewBox="0 0 1600 1000" width="1600" height="1000" role="img" aria-label="Industrial facilities">
  <defs>
    <linearGradient id="sky" x1="0" y1="0" x2="0" y2="1">
      <stop offset="0" stop-color="#081a26"/>
      <stop offset="0.55" stop-color="#0e2a3b"/>
      <stop offset="1" stop-color="#123448"/>
    </linearGradient>
    <radialGradient id="glow" cx="0.5" cy="0.42" r="0.75">
      <stop offset="0" stop-color="#17415a" stop-opacity="0.55"/>
      <stop offset="1" stop-color="#000000" stop-opacity="0"/>
    </radialGradient>
    <linearGradient id="vig" x1="0" y1="0" x2="0" y2="1">
      <stop offset="0" stop-color="#000" stop-opacity="0"/>
      <stop offset="0.75" stop-color="#000" stop-opacity="0"/>
      <stop offset="1" stop-color="#081a26" stop-opacity="0.85"/>
    </linearGradient>
  </defs>
  <rect width="1600" height="1000" fill="url(#sky)"/>
  <rect width="1600" height="1000" fill="url(#glow)"/>
  <path d="M40 0V1000 M80 0V1000 M120 0V1000 M160 0V1000 M200 0V1000 M240 0V1000 M280 0V1000 M320 0V1000 M360 0V1000 M400 0V1000 M440 0V1000 M480 0V1000 M520 0V1000 M560 0V1000 M600 0V1000 M640 0V1000 M680 0V1000 M720 0V1000 M760 0V1000 M800 0V1000 M840 0V1000 M880 0V1000 M920 0V1000 M960 0V1000 M1000 0V1000 M1040 0V1000 M1080 0V1000 M1120 0V1000 M1160 0V1000 M1200 0V1000 M1240 0V1000 M1280 0V1000 M1320 0V1000 M1360 0V1000 M1400 0V1000 M1440 0V1000 M1480 0V1000 M1520 0V1000 M1560 0V1000 M0 40H1600 M0 80H1600 M0 120H1600 M0 160H1600 M0 200H1600 M0 240H1600 M0 280H1600 M0 320H1600 M0 360H1600 M0 400H1600 M0 440H1600 M0 480H1600 M0 520H1600 M0 560H1600 M0 600H1600 M0 640H1600 M0 680H1600 M0 720H1600 M0 760H1600 M0 800H1600 M0 840H1600 M0 880H1600 M0 920H1600 M0 960H1600" stroke="#3f5f70" stroke-width="1" opacity="0.10"/>
  <path d="M200 0V1000 M400 0V1000 M600 0V1000 M800 0V1000 M1000 0V1000 M1200 0V1000 M1400 0V1000 M0 200H1600 M0 400H1600 M0 600H1600 M0 800H1600" stroke="#3f5f70" stroke-width="1" opacity="0.16"/>
  <g stroke="#5f7d8c" stroke-width="2" opacity="0.9">
    <line x1="120" y1="700" x2="1500" y2="700"/>
    <line x1="120" y1="726" x2="1500" y2="726"/>
    <line x1="120" y1="752" x2="1500" y2="752"/>
    <line x1="180" y1="686" x2="180" y2="860"/><line x1="275" y1="686" x2="275" y2="860"/><line x1="370" y1="686" x2="370" y2="860"/><line x1="465" y1="686" x2="465" y2="860"/><line x1="560" y1="686" x2="560" y2="860"/><line x1="655" y1="686" x2="655" y2="860"/><line x1="750" y1="686" x2="750" y2="860"/><line x1="845" y1="686" x2="845" y2="860"/><line x1="940" y1="686" x2="940" y2="860"/><line x1="1035" y1="686" x2="1035" y2="860"/><line x1="1130" y1="686" x2="1130" y2="860"/><line x1="1225" y1="686" x2="1225" y2="860"/><line x1="1320" y1="686" x2="1320" y2="860"/><line x1="1415" y1="686" x2="1415" y2="860"/>
  </g><rect x="300" y="360" width="70" height="500" fill="none" stroke="#3f5f70" stroke-width="3"/>
         <line x1="300" y1="400" x2="370" y2="400" stroke="#5f7d8c" stroke-width="2"/>
         <line x1="300" y1="450" x2="370" y2="450" stroke="#5f7d8c" stroke-width="2"/>
         <rect x="320" y="334" width="30" height="26" fill="none" stroke="#5f7d8c" stroke-width="2"/><rect x="430" y="300" width="70" height="560" fill="none" stroke="#3f5f70" stroke-width="3"/>
         <line x1="430" y1="340" x2="500" y2="340" stroke="#5f7d8c" stroke-width="2"/>
         <line x1="430" y1="390" x2="500" y2="390" stroke="#5f7d8c" stroke-width="2"/>
         <rect x="450" y="274" width="30" height="26" fill="none" stroke="#5f7d8c" stroke-width="2"/><rect x="560" y="420" width="70" height="440" fill="none" stroke="#3f5f70" stroke-width="3"/>
         <line x1="560" y1="460" x2="630" y2="460" stroke="#5f7d8c" stroke-width="2"/>
         <line x1="560" y1="510" x2="630" y2="510" stroke="#5f7d8c" stroke-width="2"/>
         <rect x="580" y="394" width="30" height="26" fill="none" stroke="#5f7d8c" stroke-width="2"/><g stroke="#5f7d8c" stroke-width="2" opacity="0.55">
    <path d="M900 860 v-70 a70 24 0 0 1 140 0 v70" fill="none"/>
    <path d="M1060 860 v-54 a54 20 0 0 1 108 0 v54" fill="none"/>
  </g><g>
    <line x1="1180" y1="860" x2="1180" y2="300" stroke="#3f5f70" stroke-width="4"/>
    <line x1="1210" y1="860" x2="1210" y2="330" stroke="#3f5f70" stroke-width="4"/>
    <line x1="1180" y1="360" x2="1210" y2="330" stroke="#5f7d8c" stroke-width="2"/>
    <line x1="1180" y1="470" x2="1210" y2="440" stroke="#5f7d8c" stroke-width="2"/>
    <path d="M1180 300 q -8 -34 10 -60 q 6 30 26 40 q 8 -14 4 -30 q 26 30 12 66 z" fill="#b0692f" opacity="0.9"/>
    <path d="M1188 292 q -3 -18 6 -32 q 4 16 14 20 q -2 12 -6 22 z" fill="#c98a4e"/>
  </g><line x1="0" y1="860" x2="1600" y2="860" stroke="#3f5f70" stroke-width="3"/>
  <rect width="1600" height="1000" fill="url(#vig)"/>
  <rect x="0" y="0" width="1600" height="6" fill="#b0692f"/>
  <text x="40" y="966" fill="#ffffff" opacity="0.30" font-family="Arial,sans-serif" font-size="20" letter-spacing="3">WELTEK · INDUSTRIAL FACILITIES · PLACEHOLDER</text>
</svg>